<?xml version="1.0" encoding="UTF-8" standalone="no"?>
<!-- Created with Inkscape (http://www.inkscape.org/) -->

<svg
   width="210mm"
   height="297mm"
   viewBox="0 0 210 297"
   version="1.1"
   id="svg5"
   inkscape:version="1.2.2 (732a01da63, 2022-12-09)"
   sodipodi:docname="new_tube_holder.svg"
   xmlns:inkscape="http://www.inkscape.org/namespaces/inkscape"
   xmlns:sodipodi="http://sodipodi.sourceforge.net/DTD/sodipodi-0.dtd"
   xmlns="http://www.w3.org/2000/svg"
   xmlns:svg="http://www.w3.org/2000/svg">
  <sodipodi:namedview
     id="namedview7"
     pagecolor="#ffffff"
     bordercolor="#999999"
     borderopacity="1"
     inkscape:showpageshadow="0"
     inkscape:pageopacity="0"
     inkscape:pagecheckerboard="0"
     inkscape:deskcolor="#d1d1d1"
     inkscape:document-units="mm"
     showgrid="false"
     inkscape:zoom="0.53354917"
     inkscape:cx="581.95199"
     inkscape:cy="444.19524"
     inkscape:window-width="1920"
     inkscape:window-height="1027"
     inkscape:window-x="-8"
     inkscape:window-y="-8"
     inkscape:window-maximized="1"
     inkscape:current-layer="layer1" />
  <defs
     id="defs2" />
  <g
     inkscape:label="Calque 1"
     inkscape:groupmode="layer"
     id="layer1">
    <path
       style="fill:none;stroke:#ff0000;stroke-width:1.06515;stroke-dasharray:none"
       d="M 22.467431,8.0000006 A 3.9674272,3.967426 0 0 1 18.500002,11.967428 3.9674272,3.967426 0 0 1 14.532575,8.0000006 3.9674272,3.967426 0 0 1 18.500002,4.032575 3.9674272,3.967426 0 0 1 22.467431,8.0000006 Z"
       id="path11463" />
    <path
       id="path11465"
       style="fill:none;stroke:#000000;stroke-width:1.00485;stroke-dasharray:none"
       d="M 18.5,0.50242502 C 14.073884,0.50247282 10.485821,4.0905006 10.485775,8.5165708 10.487075,10.585381 11.288425,12.508467 12.722074,14 H 0.50242473 v 4 H 36.497576 V 14 H 24.277408 C 25.711246,12.508548 26.512752,10.585453 26.514225,8.5165708 26.514179,4.0905006 22.926116,0.50247282 18.5,0.50242502 Z"
       sodipodi:nodetypes="cccccccccc" />
    <path
       style="fill:none;stroke:#ff0000;stroke-width:1.06515;stroke-dasharray:none"
       d="m 62.467431,8.000001 a 3.9674272,3.967426 0 0 1 -3.967429,3.967427 3.9674272,3.967426 0 0 1 -3.967427,-3.967427 3.9674272,3.967426 0 0 1 3.967427,-3.967426 3.9674272,3.967426 0 0 1 3.967429,3.967426 z"
       id="path11463-0" />
    <path
       id="path11465-4"
       style="fill:none;stroke:#000000;stroke-width:1.00485;stroke-dasharray:none"
       d="m 58.5,0.50242502 c -4.426116,4.8e-5 -8.014179,3.58807598 -8.014225,8.01414598 0.0013,2.06881 0.80265,3.991896 2.236299,5.483429 H 40.502425 v 4 H 76.497576 V 14 H 64.277408 C 65.711246,12.508548 66.512752,10.585453 66.514225,8.516571 66.514179,4.090501 62.926116,0.50247302 58.5,0.50242502 Z"
       sodipodi:nodetypes="cccccccccc" />
    <path
       style="fill:none;stroke:#ff0000;stroke-width:1.06515;stroke-dasharray:none"
       d="m 102.46743,8.000001 a 3.9674272,3.967426 0 0 1 -3.967428,3.967427 3.9674272,3.967426 0 0 1 -3.967427,-3.967427 3.9674272,3.967426 0 0 1 3.967427,-3.967426 3.9674272,3.967426 0 0 1 3.967428,3.967426 z"
       id="path11463-4" />
    <path
       id="path11465-48"
       style="fill:none;stroke:#000000;stroke-width:1.00485;stroke-dasharray:none"
       d="m 98.5,0.50242502 c -4.426116,4.8e-5 -8.014179,3.58807598 -8.014225,8.01414598 0.0013,2.06881 0.80265,3.991896 2.236299,5.483429 H 80.502425 v 4 h 35.995155 v -4 h -12.22017 c 1.43384,-1.491452 2.23534,-3.414547 2.23682,-5.483429 -5e-5,-4.42607 -3.58811,-8.01409798 -8.01423,-8.01414598 z"
       sodipodi:nodetypes="cccccccccc" />
    <path
       style="fill:none;stroke:#ff0000;stroke-width:1.06515;stroke-dasharray:none"
       d="M 142.46743,8.000001 A 3.9674272,3.967426 0 0 1 138.5,11.967428 3.9674272,3.967426 0 0 1 134.53258,8.000001 3.9674272,3.967426 0 0 1 138.5,4.032575 a 3.9674272,3.967426 0 0 1 3.96743,3.967426 z"
       id="path11463-0-2" />
    <path
       id="path11465-4-7"
       style="fill:none;stroke:#000000;stroke-width:1.00485;stroke-dasharray:none"
       d="m 138.5,0.50242502 c -4.42612,4.8e-5 -8.01418,3.58807598 -8.01422,8.01414598 0.001,2.06881 0.80265,3.991896 2.23629,5.483429 h -12.21964 v 4 h 35.99515 v -4 h -12.22017 c 1.43384,-1.491452 2.23534,-3.414547 2.23682,-5.483429 -5e-5,-4.42607 -3.58811,-8.01409798 -8.01423,-8.01414598 z"
       sodipodi:nodetypes="cccccccccc" />
    <path
       style="fill:none;stroke:#ff0000;stroke-width:1.06515;stroke-dasharray:none"
       d="m 22.467431,28.000001 a 3.9674272,3.967426 0 0 1 -3.967429,3.967427 3.9674272,3.967426 0 0 1 -3.967427,-3.967427 3.9674272,3.967426 0 0 1 3.967427,-3.967426 3.9674272,3.967426 0 0 1 3.967429,3.967426 z"
       id="path11463-2" />
    <path
       id="path11465-9"
       style="fill:none;stroke:#000000;stroke-width:1.00485;stroke-dasharray:none"
       d="m 18.5,20.502425 c -4.426116,4.8e-5 -8.014179,3.588076 -8.014225,8.014146 0.0013,2.06881 0.80265,3.991896 2.236299,5.483429 H 0.50242501 v 4 H 36.497576 V 34 H 24.277408 c 1.433838,-1.491452 2.235344,-3.414547 2.236817,-5.483429 -4.6e-5,-4.42607 -3.588109,-8.014098 -8.014225,-8.014146 z"
       sodipodi:nodetypes="cccccccccc" />
    <path
       style="fill:none;stroke:#ff0000;stroke-width:1.06515;stroke-dasharray:none"
       d="m 62.467431,28.000001 a 3.9674272,3.967426 0 0 1 -3.967429,3.967427 3.9674272,3.967426 0 0 1 -3.967427,-3.967427 3.9674272,3.967426 0 0 1 3.967427,-3.967426 3.9674272,3.967426 0 0 1 3.967429,3.967426 z"
       id="path11463-0-6" />
    <path
       id="path11465-4-8"
       style="fill:none;stroke:#000000;stroke-width:1.00485;stroke-dasharray:none"
       d="m 58.5,20.502425 c -4.426116,4.8e-5 -8.014179,3.588076 -8.014225,8.014146 0.0013,2.06881 0.80265,3.991896 2.236299,5.483429 H 40.502425 v 4 H 76.497576 V 34 H 64.277408 c 1.433838,-1.491452 2.235344,-3.414547 2.236817,-5.483429 -4.6e-5,-4.42607 -3.588109,-8.014098 -8.014225,-8.014146 z"
       sodipodi:nodetypes="cccccccccc" />
    <path
       style="fill:none;stroke:#ff0000;stroke-width:1.06515;stroke-dasharray:none"
       d="m 102.46743,28.000001 a 3.9674272,3.967426 0 0 1 -3.967428,3.967427 3.9674272,3.967426 0 0 1 -3.967427,-3.967427 3.9674272,3.967426 0 0 1 3.967427,-3.967426 3.9674272,3.967426 0 0 1 3.967428,3.967426 z"
       id="path11463-4-0" />
    <path
       id="path11465-48-1"
       style="fill:none;stroke:#000000;stroke-width:1.00485;stroke-dasharray:none"
       d="m 98.5,20.502425 c -4.426116,4.8e-5 -8.014179,3.588076 -8.014225,8.014146 0.0013,2.06881 0.80265,3.991896 2.236299,5.483429 H 80.502425 v 4 h 35.995155 v -4 h -12.22017 c 1.43384,-1.491452 2.23534,-3.414547 2.23682,-5.483429 -5e-5,-4.42607 -3.58811,-8.014098 -8.01423,-8.014146 z"
       sodipodi:nodetypes="cccccccccc" />
    <path
       style="fill:none;stroke:#ff0000;stroke-width:1.06515;stroke-dasharray:none"
       d="M 142.46743,28.000001 A 3.9674272,3.967426 0 0 1 138.5,31.967428 3.9674272,3.967426 0 0 1 134.53258,28.000001 3.9674272,3.967426 0 0 1 138.5,24.032575 a 3.9674272,3.967426 0 0 1 3.96743,3.967426 z"
       id="path11463-0-2-2" />
    <path
       id="path11465-4-7-6"
       style="fill:none;stroke:#000000;stroke-width:1.00485;stroke-dasharray:none"
       d="m 138.5,20.502425 c -4.42612,4.8e-5 -8.01418,3.588076 -8.01422,8.014146 0.001,2.06881 0.80265,3.991896 2.23629,5.483429 h -12.21964 v 4 h 35.99515 v -4 h -12.22017 c 1.43384,-1.491452 2.23534,-3.414547 2.23682,-5.483429 -5e-5,-4.42607 -3.58811,-8.014098 -8.01423,-8.014146 z"
       sodipodi:nodetypes="cccccccccc" />
    <path
       style="fill:none;stroke:#ff0000;stroke-width:1.06515;stroke-dasharray:none"
       d="m 22.467432,48.000001 a 3.9674272,3.967426 0 0 1 -3.967429,3.967427 3.9674272,3.967426 0 0 1 -3.967427,-3.967427 3.9674272,3.967426 0 0 1 3.967427,-3.967426 3.9674272,3.967426 0 0 1 3.967429,3.967426 z"
       id="path11463-44" />
    <path
       id="path11465-8"
       style="fill:none;stroke:#000000;stroke-width:1.00485;stroke-dasharray:none"
       d="m 18.500001,40.502425 c -4.426116,4.8e-5 -8.014179,3.588076 -8.014225,8.014146 0.0013,2.06881 0.80265,3.991896 2.236299,5.483429 H 0.50242501 v 4 H 36.497577 V 54 H 24.277409 c 1.433838,-1.491452 2.235344,-3.414547 2.236817,-5.483429 -4.6e-5,-4.42607 -3.588109,-8.014098 -8.014225,-8.014146 z"
       sodipodi:nodetypes="cccccccccc" />
    <path
       style="fill:none;stroke:#ff0000;stroke-width:1.06515;stroke-dasharray:none"
       d="m 62.467432,48.000001 a 3.9674272,3.967426 0 0 1 -3.967429,3.967427 3.9674272,3.967426 0 0 1 -3.967427,-3.967427 3.9674272,3.967426 0 0 1 3.967427,-3.967426 3.9674272,3.967426 0 0 1 3.967429,3.967426 z"
       id="path11463-0-5" />
    <path
       id="path11465-4-74"
       style="fill:none;stroke:#000000;stroke-width:1.00485;stroke-dasharray:none"
       d="m 58.500001,40.502425 c -4.426116,4.8e-5 -8.014179,3.588076 -8.014225,8.014146 0.0013,2.06881 0.80265,3.991896 2.236299,5.483429 H 40.502426 v 4 H 76.497577 V 54 H 64.277409 c 1.433838,-1.491452 2.235344,-3.414547 2.236817,-5.483429 -4.6e-5,-4.42607 -3.588109,-8.014098 -8.014225,-8.014146 z"
       sodipodi:nodetypes="cccccccccc" />
    <path
       style="fill:none;stroke:#ff0000;stroke-width:1.06515;stroke-dasharray:none"
       d="m 102.46743,48.000001 a 3.9674272,3.967426 0 0 1 -3.967427,3.967427 3.9674272,3.967426 0 0 1 -3.967427,-3.967427 3.9674272,3.967426 0 0 1 3.967427,-3.967426 3.9674272,3.967426 0 0 1 3.967427,3.967426 z"
       id="path11463-4-8" />
    <path
       id="path11465-48-7"
       style="fill:none;stroke:#000000;stroke-width:1.00485;stroke-dasharray:none"
       d="m 98.500001,40.502425 c -4.426116,4.8e-5 -8.014179,3.588076 -8.014225,8.014146 0.0013,2.06881 0.80265,3.991896 2.236299,5.483429 H 80.502426 v 4 h 35.995154 v -4 h -12.22017 c 1.43384,-1.491452 2.23534,-3.414547 2.23682,-5.483429 -5e-5,-4.42607 -3.58811,-8.014098 -8.014229,-8.014146 z"
       sodipodi:nodetypes="cccccccccc" />
    <path
       style="fill:none;stroke:#ff0000;stroke-width:1.06515;stroke-dasharray:none"
       d="M 142.46743,48.000001 A 3.9674272,3.967426 0 0 1 138.5,51.967428 3.9674272,3.967426 0 0 1 134.53258,48.000001 3.9674272,3.967426 0 0 1 138.5,44.032575 a 3.9674272,3.967426 0 0 1 3.96743,3.967426 z"
       id="path11463-0-2-9" />
    <path
       id="path11465-4-7-8"
       style="fill:none;stroke:#000000;stroke-width:1.00485;stroke-dasharray:none"
       d="m 138.5,40.502425 c -4.42612,4.8e-5 -8.01418,3.588076 -8.01422,8.014146 0.001,2.06881 0.80265,3.991896 2.23629,5.483429 h -12.21964 v 4 h 35.99515 v -4 h -12.22017 c 1.43384,-1.491452 2.23534,-3.414547 2.23682,-5.483429 -5e-5,-4.42607 -3.58811,-8.014098 -8.01423,-8.014146 z"
       sodipodi:nodetypes="cccccccccc" />
    <path
       style="fill:none;stroke:#ff0000;stroke-width:1.06515;stroke-dasharray:none"
       d="m 22.467432,68.000001 a 3.9674272,3.967426 0 0 1 -3.967429,3.967427 3.9674272,3.967426 0 0 1 -3.967427,-3.967427 3.9674272,3.967426 0 0 1 3.967427,-3.967426 3.9674272,3.967426 0 0 1 3.967429,3.967426 z"
       id="path11463-2-1" />
    <path
       id="path11465-9-6"
       style="fill:none;stroke:#000000;stroke-width:1.00485;stroke-dasharray:none"
       d="m 18.500001,60.502425 c -4.426116,4.8e-5 -8.014179,3.588076 -8.014225,8.014146 0.0013,2.06881 0.80265,3.991896 2.236299,5.483429 H 0.50242531 v 4 H 36.497577 V 74 H 24.277409 c 1.433838,-1.491452 2.235344,-3.414547 2.236817,-5.483429 -4.6e-5,-4.42607 -3.588109,-8.014098 -8.014225,-8.014146 z"
       sodipodi:nodetypes="cccccccccc" />
    <path
       style="fill:none;stroke:#ff0000;stroke-width:1.06515;stroke-dasharray:none"
       d="m 62.467432,68.000001 a 3.9674272,3.967426 0 0 1 -3.967429,3.967427 3.9674272,3.967426 0 0 1 -3.967427,-3.967427 3.9674272,3.967426 0 0 1 3.967427,-3.967426 3.9674272,3.967426 0 0 1 3.967429,3.967426 z"
       id="path11463-0-6-9" />
    <path
       id="path11465-4-8-0"
       style="fill:none;stroke:#000000;stroke-width:1.00485;stroke-dasharray:none"
       d="m 58.500001,60.502425 c -4.426116,4.8e-5 -8.014179,3.588076 -8.014225,8.014146 0.0013,2.06881 0.80265,3.991896 2.236299,5.483429 H 40.502426 v 4 H 76.497577 V 74 H 64.277409 c 1.433838,-1.491452 2.235344,-3.414547 2.236817,-5.483429 -4.6e-5,-4.42607 -3.588109,-8.014098 -8.014225,-8.014146 z"
       sodipodi:nodetypes="cccccccccc" />
    <path
       style="fill:none;stroke:#ff0000;stroke-width:1.06515;stroke-dasharray:none"
       d="m 102.46743,68.000001 a 3.9674272,3.967426 0 0 1 -3.967427,3.967427 3.9674272,3.967426 0 0 1 -3.967427,-3.967427 3.9674272,3.967426 0 0 1 3.967427,-3.967426 3.9674272,3.967426 0 0 1 3.967427,3.967426 z"
       id="path11463-4-0-2" />
    <path
       id="path11465-48-1-6"
       style="fill:none;stroke:#000000;stroke-width:1.00485;stroke-dasharray:none"
       d="m 98.500001,60.502425 c -4.426116,4.8e-5 -8.014179,3.588076 -8.014225,8.014146 0.0013,2.06881 0.80265,3.991896 2.236299,5.483429 H 80.502426 v 4 h 35.995154 v -4 h -12.22017 c 1.43384,-1.491452 2.23534,-3.414547 2.23682,-5.483429 -5e-5,-4.42607 -3.58811,-8.014098 -8.014229,-8.014146 z"
       sodipodi:nodetypes="cccccccccc" />
    <path
       style="fill:none;stroke:#ff0000;stroke-width:1.06515;stroke-dasharray:none"
       d="M 142.46743,68.000001 A 3.9674272,3.967426 0 0 1 138.5,71.967428 3.9674272,3.967426 0 0 1 134.53258,68.000001 3.9674272,3.967426 0 0 1 138.5,64.032575 a 3.9674272,3.967426 0 0 1 3.96743,3.967426 z"
       id="path11463-0-2-2-8" />
    <path
       id="path11465-4-7-6-5"
       style="fill:none;stroke:#000000;stroke-width:1.00485;stroke-dasharray:none"
       d="m 138.5,60.502425 c -4.42612,4.8e-5 -8.01418,3.588076 -8.01422,8.014146 0.001,2.06881 0.80265,3.991896 2.23629,5.483429 h -12.21964 v 4 h 35.99515 v -4 h -12.22017 c 1.43384,-1.491452 2.23534,-3.414547 2.23682,-5.483429 -5e-5,-4.42607 -3.58811,-8.014098 -8.01423,-8.014146 z"
       sodipodi:nodetypes="cccccccccc" />
    <path
       style="fill:none;stroke:#ff0000;stroke-width:1.06515;stroke-dasharray:none"
       d="m 22.467431,88.000001 a 3.9674272,3.967426 0 0 1 -3.967429,3.967427 3.9674272,3.967426 0 0 1 -3.967427,-3.967427 3.9674272,3.967426 0 0 1 3.967427,-3.967426 3.9674272,3.967426 0 0 1 3.967429,3.967426 z"
       id="path11463-5" />
    <path
       id="path11465-1"
       style="fill:none;stroke:#000000;stroke-width:1.00485;stroke-dasharray:none"
       d="m 18.5,80.502425 c -4.426116,4.8e-5 -8.014179,3.588076 -8.014225,8.014146 0.0013,2.06881 0.80265,3.991896 2.236299,5.483429 H 0.50242501 v 4 H 36.497576 V 94 H 24.277408 c 1.433838,-1.491452 2.235344,-3.414547 2.236817,-5.483429 -4.6e-5,-4.42607 -3.588109,-8.014098 -8.014225,-8.014146 z"
       sodipodi:nodetypes="cccccccccc" />
    <path
       style="fill:none;stroke:#ff0000;stroke-width:1.06515;stroke-dasharray:none"
       d="m 62.467431,88.000001 a 3.9674272,3.967426 0 0 1 -3.967429,3.967427 3.9674272,3.967426 0 0 1 -3.967427,-3.967427 3.9674272,3.967426 0 0 1 3.967427,-3.967426 3.9674272,3.967426 0 0 1 3.967429,3.967426 z"
       id="path11463-0-57" />
    <path
       id="path11465-4-85"
       style="fill:none;stroke:#000000;stroke-width:1.00485;stroke-dasharray:none"
       d="m 58.5,80.502425 c -4.426116,4.8e-5 -8.014179,3.588076 -8.014225,8.014146 0.0013,2.06881 0.80265,3.991896 2.236299,5.483429 H 40.502425 v 4 H 76.497576 V 94 H 64.277408 c 1.433838,-1.491452 2.235344,-3.414547 2.236817,-5.483429 -4.6e-5,-4.42607 -3.588109,-8.014098 -8.014225,-8.014146 z"
       sodipodi:nodetypes="cccccccccc" />
    <path
       style="fill:none;stroke:#ff0000;stroke-width:1.06515;stroke-dasharray:none"
       d="m 102.46743,88.000001 a 3.9674272,3.967426 0 0 1 -3.967428,3.967427 3.9674272,3.967426 0 0 1 -3.967427,-3.967427 3.9674272,3.967426 0 0 1 3.967427,-3.967426 3.9674272,3.967426 0 0 1 3.967428,3.967426 z"
       id="path11463-4-08" />
    <path
       id="path11465-48-19"
       style="fill:none;stroke:#000000;stroke-width:1.00485;stroke-dasharray:none"
       d="m 98.5,80.502425 c -4.426116,4.8e-5 -8.014179,3.588076 -8.014225,8.014146 0.0013,2.06881 0.80265,3.991896 2.236299,5.483429 H 80.502425 v 4 h 35.995155 v -4 h -12.22017 c 1.43384,-1.491452 2.23534,-3.414547 2.23682,-5.483429 -5e-5,-4.42607 -3.58811,-8.014098 -8.01423,-8.014146 z"
       sodipodi:nodetypes="cccccccccc" />
    <path
       style="fill:none;stroke:#ff0000;stroke-width:1.06515;stroke-dasharray:none"
       d="M 142.46743,88.000001 A 3.9674272,3.967426 0 0 1 138.5,91.967428 3.9674272,3.967426 0 0 1 134.53258,88.000001 3.9674272,3.967426 0 0 1 138.5,84.032575 a 3.9674272,3.967426 0 0 1 3.96743,3.967426 z"
       id="path11463-0-2-0" />
    <path
       id="path11465-4-7-0"
       style="fill:none;stroke:#000000;stroke-width:1.00485;stroke-dasharray:none"
       d="m 138.5,80.502425 c -4.42612,4.8e-5 -8.01418,3.588076 -8.01422,8.014146 0.001,2.06881 0.80265,3.991896 2.23629,5.483429 h -12.21964 v 4 h 35.99515 v -4 h -12.22017 c 1.43384,-1.491452 2.23534,-3.414547 2.23682,-5.483429 -5e-5,-4.42607 -3.58811,-8.014098 -8.01423,-8.014146 z"
       sodipodi:nodetypes="cccccccccc" />
    <path
       style="fill:none;stroke:#ff0000;stroke-width:1.06515;stroke-dasharray:none"
       d="M 22.467431,108 A 3.9674272,3.967426 0 0 1 18.500002,111.96743 3.9674272,3.967426 0 0 1 14.532575,108 3.9674272,3.967426 0 0 1 18.500002,104.03257 3.9674272,3.967426 0 0 1 22.467431,108 Z"
       id="path11463-2-6" />
    <path
       id="path11465-9-60"
       style="fill:none;stroke:#000000;stroke-width:1.00485;stroke-dasharray:none"
       d="m 18.5,100.50242 c -4.426116,5e-5 -8.014179,3.58808 -8.014225,8.01415 0.0013,2.06881 0.80265,3.9919 2.236299,5.48343 H 0.50242501 v 4 H 36.497576 v -4 H 24.277408 c 1.433838,-1.49145 2.235344,-3.41455 2.236817,-5.48343 -4.6e-5,-4.42607 -3.588109,-8.0141 -8.014225,-8.01415 z"
       sodipodi:nodetypes="cccccccccc" />
    <path
       style="fill:none;stroke:#ff0000;stroke-width:1.06515;stroke-dasharray:none"
       d="M 62.467431,108 A 3.9674272,3.967426 0 0 1 58.500002,111.96743 3.9674272,3.967426 0 0 1 54.532575,108 3.9674272,3.967426 0 0 1 58.500002,104.03257 3.9674272,3.967426 0 0 1 62.467431,108 Z"
       id="path11463-0-6-98" />
    <path
       id="path11465-4-8-8"
       style="fill:none;stroke:#000000;stroke-width:1.00485;stroke-dasharray:none"
       d="m 58.5,100.50242 c -4.426116,5e-5 -8.014179,3.58808 -8.014225,8.01415 0.0013,2.06881 0.80265,3.9919 2.236299,5.48343 H 40.502425 v 4 h 35.995151 v -4 H 64.277408 c 1.433838,-1.49145 2.235344,-3.41455 2.236817,-5.48343 -4.6e-5,-4.42607 -3.588109,-8.0141 -8.014225,-8.01415 z"
       sodipodi:nodetypes="cccccccccc" />
    <path
       style="fill:none;stroke:#ff0000;stroke-width:1.06515;stroke-dasharray:none"
       d="M 102.46743,108 A 3.9674272,3.967426 0 0 1 98.500002,111.96743 3.9674272,3.967426 0 0 1 94.532575,108 3.9674272,3.967426 0 0 1 98.500002,104.03257 3.9674272,3.967426 0 0 1 102.46743,108 Z"
       id="path11463-4-0-9" />
    <path
       id="path11465-48-1-0"
       style="fill:none;stroke:#000000;stroke-width:1.00485;stroke-dasharray:none"
       d="m 98.5,100.50242 c -4.426116,5e-5 -8.014179,3.58808 -8.014225,8.01415 0.0013,2.06881 0.80265,3.9919 2.236299,5.48343 H 80.502425 v 4 h 35.995155 v -4 h -12.22017 c 1.43384,-1.49145 2.23534,-3.41455 2.23682,-5.48343 -5e-5,-4.42607 -3.58811,-8.0141 -8.01423,-8.01415 z"
       sodipodi:nodetypes="cccccccccc" />
    <path
       style="fill:none;stroke:#ff0000;stroke-width:1.06515;stroke-dasharray:none"
       d="M 142.46743,108 A 3.9674272,3.967426 0 0 1 138.5,111.96743 3.9674272,3.967426 0 0 1 134.53258,108 3.9674272,3.967426 0 0 1 138.5,104.03257 3.9674272,3.967426 0 0 1 142.46743,108 Z"
       id="path11463-0-2-2-83" />
    <path
       id="path11465-4-7-6-7"
       style="fill:none;stroke:#000000;stroke-width:1.00485;stroke-dasharray:none"
       d="m 138.5,100.50242 c -4.42612,5e-5 -8.01418,3.58808 -8.01422,8.01415 0.001,2.06881 0.80265,3.9919 2.23629,5.48343 h -12.21964 v 4 h 35.99515 v -4 h -12.22017 c 1.43384,-1.49145 2.23534,-3.41455 2.23682,-5.48343 -5e-5,-4.42607 -3.58811,-8.0141 -8.01423,-8.01415 z"
       sodipodi:nodetypes="cccccccccc" />
    <path
       style="fill:none;stroke:#ff0000;stroke-width:1.06515;stroke-dasharray:none"
       d="M 22.467432,128 A 3.9674272,3.967426 0 0 1 18.500003,131.96743 3.9674272,3.967426 0 0 1 14.532576,128 3.9674272,3.967426 0 0 1 18.500003,124.03257 3.9674272,3.967426 0 0 1 22.467432,128 Z"
       id="path11463-44-6" />
    <path
       id="path11465-8-3"
       style="fill:none;stroke:#000000;stroke-width:1.00485;stroke-dasharray:none"
       d="m 18.500001,120.50242 c -4.426116,5e-5 -8.014179,3.58808 -8.014225,8.01415 0.0013,2.06881 0.80265,3.9919 2.236299,5.48343 H 0.50242501 v 4 H 36.497577 v -4 H 24.277409 c 1.433838,-1.49145 2.235344,-3.41455 2.236817,-5.48343 -4.6e-5,-4.42607 -3.588109,-8.0141 -8.014225,-8.01415 z"
       sodipodi:nodetypes="cccccccccc" />
    <path
       style="fill:none;stroke:#ff0000;stroke-width:1.06515;stroke-dasharray:none"
       d="M 62.467432,128 A 3.9674272,3.967426 0 0 1 58.500003,131.96743 3.9674272,3.967426 0 0 1 54.532576,128 3.9674272,3.967426 0 0 1 58.500003,124.03257 3.9674272,3.967426 0 0 1 62.467432,128 Z"
       id="path11463-0-5-7" />
    <path
       id="path11465-4-74-1"
       style="fill:none;stroke:#000000;stroke-width:1.00485;stroke-dasharray:none"
       d="m 58.500001,120.50242 c -4.426116,5e-5 -8.014179,3.58808 -8.014225,8.01415 0.0013,2.06881 0.80265,3.9919 2.236299,5.48343 H 40.502426 v 4 h 35.995151 v -4 H 64.277409 c 1.433838,-1.49145 2.235344,-3.41455 2.236817,-5.48343 -4.6e-5,-4.42607 -3.588109,-8.0141 -8.014225,-8.01415 z"
       sodipodi:nodetypes="cccccccccc" />
    <path
       style="fill:none;stroke:#ff0000;stroke-width:1.06515;stroke-dasharray:none"
       d="M 102.46743,128 A 3.9674272,3.967426 0 0 1 98.500003,131.96743 3.9674272,3.967426 0 0 1 94.532576,128 3.9674272,3.967426 0 0 1 98.500003,124.03257 3.9674272,3.967426 0 0 1 102.46743,128 Z"
       id="path11463-4-8-5" />
    <path
       id="path11465-48-7-4"
       style="fill:none;stroke:#000000;stroke-width:1.00485;stroke-dasharray:none"
       d="m 98.500001,120.50242 c -4.426116,5e-5 -8.014179,3.58808 -8.014225,8.01415 0.0013,2.06881 0.80265,3.9919 2.236299,5.48343 H 80.502426 v 4 h 35.995154 v -4 h -12.22017 c 1.43384,-1.49145 2.23534,-3.41455 2.23682,-5.48343 -5e-5,-4.42607 -3.58811,-8.0141 -8.014229,-8.01415 z"
       sodipodi:nodetypes="cccccccccc" />
    <path
       style="fill:none;stroke:#ff0000;stroke-width:1.06515;stroke-dasharray:none"
       d="M 142.46743,128 A 3.9674272,3.967426 0 0 1 138.5,131.96743 3.9674272,3.967426 0 0 1 134.53258,128 3.9674272,3.967426 0 0 1 138.5,124.03257 3.9674272,3.967426 0 0 1 142.46743,128 Z"
       id="path11463-0-2-9-2" />
    <path
       id="path11465-4-7-8-3"
       style="fill:none;stroke:#000000;stroke-width:1.00485;stroke-dasharray:none"
       d="m 138.5,120.50242 c -4.42612,5e-5 -8.01418,3.58808 -8.01422,8.01415 0.001,2.06881 0.80265,3.9919 2.23629,5.48343 h -12.21964 v 4 h 35.99515 v -4 h -12.22017 c 1.43384,-1.49145 2.23534,-3.41455 2.23682,-5.48343 -5e-5,-4.42607 -3.58811,-8.0141 -8.01423,-8.01415 z"
       sodipodi:nodetypes="cccccccccc" />
    <path
       style="fill:none;stroke:#ff0000;stroke-width:1.06515;stroke-dasharray:none"
       d="M 22.467432,148 A 3.9674272,3.967426 0 0 1 18.500003,151.96743 3.9674272,3.967426 0 0 1 14.532576,148 3.9674272,3.967426 0 0 1 18.500003,144.03257 3.9674272,3.967426 0 0 1 22.467432,148 Z"
       id="path11463-2-1-1" />
    <path
       id="path11465-9-6-3"
       style="fill:none;stroke:#000000;stroke-width:1.00485;stroke-dasharray:none"
       d="m 18.500001,140.50242 c -4.426116,5e-5 -8.014179,3.58808 -8.014225,8.01415 0.0013,2.06881 0.80265,3.9919 2.236299,5.48343 H 0.50242501 v 4 H 36.497577 v -4 H 24.277409 c 1.433838,-1.49145 2.235344,-3.41455 2.236817,-5.48343 -4.6e-5,-4.42607 -3.588109,-8.0141 -8.014225,-8.01415 z"
       sodipodi:nodetypes="cccccccccc" />
    <path
       style="fill:none;stroke:#ff0000;stroke-width:1.06515;stroke-dasharray:none"
       d="M 62.467432,148 A 3.9674272,3.967426 0 0 1 58.500003,151.96743 3.9674272,3.967426 0 0 1 54.532576,148 3.9674272,3.967426 0 0 1 58.500003,144.03257 3.9674272,3.967426 0 0 1 62.467432,148 Z"
       id="path11463-0-6-9-5" />
    <path
       id="path11465-4-8-0-0"
       style="fill:none;stroke:#000000;stroke-width:1.00485;stroke-dasharray:none"
       d="m 58.500001,140.50242 c -4.426116,5e-5 -8.014179,3.58808 -8.014225,8.01415 0.0013,2.06881 0.80265,3.9919 2.236299,5.48343 H 40.502426 v 4 h 35.995151 v -4 H 64.277409 c 1.433838,-1.49145 2.235344,-3.41455 2.236817,-5.48343 -4.6e-5,-4.42607 -3.588109,-8.0141 -8.014225,-8.01415 z"
       sodipodi:nodetypes="cccccccccc" />
    <path
       style="fill:none;stroke:#ff0000;stroke-width:1.06515;stroke-dasharray:none"
       d="M 102.46743,148 A 3.9674272,3.967426 0 0 1 98.500003,151.96743 3.9674272,3.967426 0 0 1 94.532576,148 3.9674272,3.967426 0 0 1 98.500003,144.03257 3.9674272,3.967426 0 0 1 102.46743,148 Z"
       id="path11463-4-0-2-8" />
    <path
       id="path11465-48-1-6-1"
       style="fill:none;stroke:#000000;stroke-width:1.00485;stroke-dasharray:none"
       d="m 98.500001,140.50242 c -4.426116,5e-5 -8.014179,3.58808 -8.014225,8.01415 0.0013,2.06881 0.80265,3.9919 2.236299,5.48343 H 80.502426 v 4 h 35.995154 v -4 h -12.22017 c 1.43384,-1.49145 2.23534,-3.41455 2.23682,-5.48343 -5e-5,-4.42607 -3.58811,-8.0141 -8.014229,-8.01415 z"
       sodipodi:nodetypes="cccccccccc" />
    <path
       style="fill:none;stroke:#ff0000;stroke-width:1.06515;stroke-dasharray:none"
       d="M 142.46743,148 A 3.9674272,3.967426 0 0 1 138.5,151.96743 3.9674272,3.967426 0 0 1 134.53258,148 3.9674272,3.967426 0 0 1 138.5,144.03257 3.9674272,3.967426 0 0 1 142.46743,148 Z"
       id="path11463-0-2-2-8-9" />
    <path
       id="path11465-4-7-6-5-3"
       style="fill:none;stroke:#000000;stroke-width:1.00485;stroke-dasharray:none"
       d="m 138.5,140.50242 c -4.42612,5e-5 -8.01418,3.58808 -8.01422,8.01415 0.001,2.06881 0.80265,3.9919 2.23629,5.48343 h -12.21964 v 4 h 35.99515 v -4 h -12.22017 c 1.43384,-1.49145 2.23534,-3.41455 2.23682,-5.48343 -5e-5,-4.42607 -3.58811,-8.0141 -8.01423,-8.01415 z"
       sodipodi:nodetypes="cccccccccc" />
    <path
       style="fill:none;stroke:#ff0000;stroke-width:1.06515;stroke-dasharray:none"
       d="m 22.467425,168.00001 a 3.9674272,3.967426 0 0 1 -3.96743,3.96743 3.9674272,3.967426 0 0 1 -3.96742,-3.96743 3.9674272,3.967426 0 0 1 3.96742,-3.96743 3.9674272,3.967426 0 0 1 3.96743,3.96743 z"
       id="path11463-44-6-7" />
    <path
       id="path11465-8-3-7"
       style="fill:none;stroke:#000000;stroke-width:1.00485;stroke-dasharray:none"
       d="m 18.499995,160.50243 c -4.42612,5e-5 -8.01418,3.58808 -8.01422,8.01415 10e-4,2.06881 0.80265,3.9919 2.23629,5.48343 H 0.50242501 v 4 H 36.497575 v -4 h -12.22017 c 1.43384,-1.49145 2.23534,-3.41455 2.23682,-5.48343 -5e-5,-4.42607 -3.58811,-8.0141 -8.01423,-8.01415 z"
       sodipodi:nodetypes="cccccccccc" />
    <path
       style="fill:none;stroke:#ff0000;stroke-width:1.06515;stroke-dasharray:none"
       d="m 62.467425,168.00001 a 3.9674272,3.967426 0 0 1 -3.96743,3.96743 3.9674272,3.967426 0 0 1 -3.96742,-3.96743 3.9674272,3.967426 0 0 1 3.96742,-3.96743 3.9674272,3.967426 0 0 1 3.96743,3.96743 z"
       id="path11463-0-5-7-5" />
    <path
       id="path11465-4-74-1-1"
       style="fill:none;stroke:#000000;stroke-width:1.00485;stroke-dasharray:none"
       d="m 58.499995,160.50243 c -4.42612,5e-5 -8.01418,3.58808 -8.01422,8.01415 0.001,2.06881 0.80265,3.9919 2.23629,5.48343 h -12.21964 v 4 h 35.99515 v -4 h -12.22017 c 1.43384,-1.49145 2.23534,-3.41455 2.23682,-5.48343 -5e-5,-4.42607 -3.58811,-8.0141 -8.01423,-8.01415 z"
       sodipodi:nodetypes="cccccccccc" />
    <path
       style="fill:none;stroke:#ff0000;stroke-width:1.06515;stroke-dasharray:none"
       d="m 102.46743,168.00001 a 3.9674272,3.967426 0 0 1 -3.967435,3.96743 3.9674272,3.967426 0 0 1 -3.96742,-3.96743 3.9674272,3.967426 0 0 1 3.96742,-3.96743 3.9674272,3.967426 0 0 1 3.967435,3.96743 z"
       id="path11463-4-8-5-1" />
    <path
       id="path11465-48-7-4-3"
       style="fill:none;stroke:#000000;stroke-width:1.00485;stroke-dasharray:none"
       d="m 98.499995,160.50243 c -4.42612,5e-5 -8.01418,3.58808 -8.01422,8.01415 10e-4,2.06881 0.80265,3.9919 2.23629,5.48343 h -12.21964 v 4 h 35.995155 v -4 h -12.22017 c 1.43384,-1.49145 2.23534,-3.41455 2.23682,-5.48343 -5e-5,-4.42607 -3.58811,-8.0141 -8.014235,-8.01415 z"
       sodipodi:nodetypes="cccccccccc" />
    <path
       style="fill:none;stroke:#ff0000;stroke-width:1.06515;stroke-dasharray:none"
       d="m 142.46743,168.00001 a 3.9674272,3.967426 0 0 1 -3.96743,3.96743 3.9674272,3.967426 0 0 1 -3.96742,-3.96743 3.9674272,3.967426 0 0 1 3.96742,-3.96743 3.9674272,3.967426 0 0 1 3.96743,3.96743 z"
       id="path11463-0-2-9-2-0" />
    <path
       id="path11465-4-7-8-3-1"
       style="fill:none;stroke:#000000;stroke-width:1.00485;stroke-dasharray:none"
       d="m 138.5,160.50243 c -4.42612,5e-5 -8.01418,3.58808 -8.01422,8.01415 0.001,2.06881 0.80265,3.9919 2.23629,5.48343 h -12.21964 v 4 h 35.99515 v -4 h -12.22017 c 1.43384,-1.49145 2.23534,-3.41455 2.23682,-5.48343 -5e-5,-4.42607 -3.58811,-8.0141 -8.01423,-8.01415 z"
       sodipodi:nodetypes="cccccccccc" />
    <path
       style="fill:none;stroke:#ff0000;stroke-width:1.06515;stroke-dasharray:none"
       d="m 22.467425,188.00001 a 3.9674272,3.967426 0 0 1 -3.96743,3.96743 3.9674272,3.967426 0 0 1 -3.96742,-3.96743 3.9674272,3.967426 0 0 1 3.96742,-3.96743 3.9674272,3.967426 0 0 1 3.96743,3.96743 z"
       id="path11463-2-1-1-5" />
    <path
       id="path11465-9-6-3-6"
       style="fill:none;stroke:#000000;stroke-width:1.00485;stroke-dasharray:none"
       d="m 18.499995,180.50243 c -4.42612,5e-5 -8.01418,3.58808 -8.01422,8.01415 10e-4,2.06881 0.80265,3.9919 2.23629,5.48343 H 0.50242501 v 4 H 36.497575 v -4 h -12.22017 c 1.43384,-1.49145 2.23534,-3.41455 2.23682,-5.48343 -5e-5,-4.42607 -3.58811,-8.0141 -8.01423,-8.01415 z"
       sodipodi:nodetypes="cccccccccc" />
    <path
       style="fill:none;stroke:#ff0000;stroke-width:1.06515;stroke-dasharray:none"
       d="m 62.467425,188.00001 a 3.9674272,3.967426 0 0 1 -3.96743,3.96743 3.9674272,3.967426 0 0 1 -3.96742,-3.96743 3.9674272,3.967426 0 0 1 3.96742,-3.96743 3.9674272,3.967426 0 0 1 3.96743,3.96743 z"
       id="path11463-0-6-9-5-2" />
    <path
       id="path11465-4-8-0-0-7"
       style="fill:none;stroke:#000000;stroke-width:1.00485;stroke-dasharray:none"
       d="m 58.499995,180.50243 c -4.42612,5e-5 -8.01418,3.58808 -8.01422,8.01415 0.001,2.06881 0.80265,3.9919 2.23629,5.48343 h -12.21964 v 4 h 35.99515 v -4 h -12.22017 c 1.43384,-1.49145 2.23534,-3.41455 2.23682,-5.48343 -5e-5,-4.42607 -3.58811,-8.0141 -8.01423,-8.01415 z"
       sodipodi:nodetypes="cccccccccc" />
    <path
       style="fill:none;stroke:#ff0000;stroke-width:1.06515;stroke-dasharray:none"
       d="m 102.46743,188.00001 a 3.9674272,3.967426 0 0 1 -3.967435,3.96743 3.9674272,3.967426 0 0 1 -3.96742,-3.96743 3.9674272,3.967426 0 0 1 3.96742,-3.96743 3.9674272,3.967426 0 0 1 3.967435,3.96743 z"
       id="path11463-4-0-2-8-5" />
    <path
       id="path11465-48-1-6-1-4"
       style="fill:none;stroke:#000000;stroke-width:1.00485;stroke-dasharray:none"
       d="m 98.499995,180.50243 c -4.42612,5e-5 -8.01418,3.58808 -8.01422,8.01415 10e-4,2.06881 0.80265,3.9919 2.23629,5.48343 h -12.21964 v 4 h 35.995155 v -4 h -12.22017 c 1.43384,-1.49145 2.23534,-3.41455 2.23682,-5.48343 -5e-5,-4.42607 -3.58811,-8.0141 -8.014235,-8.01415 z"
       sodipodi:nodetypes="cccccccccc" />
    <path
       style="fill:none;stroke:#ff0000;stroke-width:1.06515;stroke-dasharray:none"
       d="m 142.46743,188.00001 a 3.9674272,3.967426 0 0 1 -3.96743,3.96743 3.9674272,3.967426 0 0 1 -3.96742,-3.96743 3.9674272,3.967426 0 0 1 3.96742,-3.96743 3.9674272,3.967426 0 0 1 3.96743,3.96743 z"
       id="path11463-0-2-2-8-9-2" />
    <path
       id="path11465-4-7-6-5-3-2"
       style="fill:none;stroke:#000000;stroke-width:1.00485;stroke-dasharray:none"
       d="m 138.5,180.50243 c -4.42612,5e-5 -8.01418,3.58808 -8.01422,8.01415 0.001,2.06881 0.80265,3.9919 2.23629,5.48343 h -12.21964 v 4 h 35.99515 v -4 h -12.22017 c 1.43384,-1.49145 2.23534,-3.41455 2.23682,-5.48343 -5e-5,-4.42607 -3.58811,-8.0141 -8.01423,-8.01415 z"
       sodipodi:nodetypes="cccccccccc" />
  </g>
</svg>
